# xmcd CD database file
#
# Track frame offsets:
#	150
#	11210
#	23175
#	33520
#	45830
#	57965
#	67887
#	78400
#	89717
#	102430
#	113232
#	126212
#	138130
#	149640
#	164100
#	176455
#	188130
#	199092
#	210472
#	224490
#	238972
#	250137
#	260725
#	270887
#	281865
#	292607
#	304872
#
# Disc length: 4233 seconds
#
# Revision: 4
# Processed by: cddbd v1.5.1PL2 Copyright (c) Steve Scherf et al.
# Submitted via: CDex 1.51
#
DISCID=9810871b
DTITLE=Hank Snow - I'm Movin' On 1949-1953 Vol. 2
DYEAR=1900
DGENRE=Country
TTITLE0=Music Makin' Mama From Memphis
TTITLE1=The Highest Bidder
TTITLE2=The Gold Rush Is Over
TTITLE3=Love's Game Of Let's Pretend
TTITLE4=Bluebird Island (with Anita Carter)
TTITLE5=Down The Trail Of Achin' Hearts (with Anita Carter)
TTITLE6=Lady's Man
TTITLE7=(Now And Then) There's A Fool Such As I
TTITLE8=Why Do You Punish Me
TTITLE9=Chattin' With A Chick In Chattanooga
TTITLE10=The Greatest Sin
TTITLE11=Married By The Bible, Divorced By The Law
TTITLE12=There Wasn't An Organ At Our Wedding
TTITLE13=On That Old Hawaiian Shore With You
TTITLE14=Zeb Turney's Gal
TTITLE15=Golden River
TTITLE16=Moanin'
TTITLE17=I Knew That We'd Meet Again
TTITLE18=Yodeling Cowboy
TTITLE19=On That Old Hawaiian Shore With You
TTITLE20=I'm Moving On To Glory
TTITLE21=Jesus Wept
TTITLE22=Pray
TTITLE23=These Things Shall Pass
TTITLE24=He'll Understand And Say Well Done
TTITLE25=I Just Telephone Upstairs
TTITLE26=I'm In Love With Jesus
EXTD=
EXTT0=
EXTT1=
EXTT2=
EXTT3=
EXTT4=
EXTT5=
EXTT6=
EXTT7=
EXTT8=
EXTT9=
EXTT10=
EXTT11=
EXTT12=
EXTT13=
EXTT14=
EXTT15=
EXTT16=
EXTT17=
EXTT18=
EXTT19=
EXTT20=
EXTT21=
EXTT22=
EXTT23=
EXTT24=
EXTT25=
EXTT26=
PLAYORDER=
